<?xml version="1.0" encoding="UTF-8" standalone="no"?>
<svg
   viewBox="0 0 640 640"
   version="1.1"
   id="svg1"
   sodipodi:docname="cart-shopping-black.svg"
   xml:space="preserve"
   inkscape:export-filename="cart-shopping-solid-full.svg"
   inkscape:export-xdpi="96"
   inkscape:export-ydpi="96"
   inkscape:version="1.3.2 (091e20e, 2023-11-25, custom)"
   xmlns:inkscape="http://www.inkscape.org/namespaces/inkscape"
   xmlns:sodipodi="http://sodipodi.sourceforge.net/DTD/sodipodi-0.dtd"
   xmlns="http://www.w3.org/2000/svg"
   xmlns:svg="http://www.w3.org/2000/svg"><defs
     id="defs1" /><sodipodi:namedview
     id="namedview1"
     pagecolor="#ffffff"
     bordercolor="#000000"
     borderopacity="0.25"
     inkscape:showpageshadow="2"
     inkscape:pageopacity="0.0"
     inkscape:pagecheckerboard="0"
     inkscape:deskcolor="#d1d1d1"
     inkscape:zoom="0.89161746"
     inkscape:cx="320.20459"
     inkscape:cy="308.42824"
     inkscape:window-width="1920"
     inkscape:window-height="1017"
     inkscape:window-x="-8"
     inkscape:window-y="-8"
     inkscape:window-maximized="1"
     inkscape:current-layer="svg1" /><!--!Font Awesome Free 7.1.0 by @fontawesome - https://fontawesome.com License - https://fontawesome.com/license/free Copyright 2025 Fonticons, Inc.--><path
     d="m 63.153578,89.446914 c -13.101905,0 -23.642516,10.540626 -23.642516,23.642516 0,13.10191 10.540611,23.64252 23.642516,23.64252 h 44.625252 c 3.84191,0 7.09275,2.7583 7.78233,6.5017 l 51.32396,282.03553 c 6.10765,33.69059 35.46377,58.2197 69.74543,58.2197 h 252.08833 c 13.1019,0 23.64252,-10.54063 23.64252,-23.64252 0,-13.1019 -10.54062,-23.64251 -23.64252,-23.64251 H 236.63055 c -11.42723,0 -21.17977,-8.17639 -23.24849,-19.40657 l -5.02403,-27.87847 h 299.07784 c 30.34123,0 56.34801,-21.5738 61.9631,-51.42248 l 30.53825,-163.4289 c 3.64489,-19.40655 -11.23019,-37.33548 -31.0308,-37.33548 H 162.35365 l -0.39406,-1.97021 C 157.23109,108.55796 134.37666,89.446914 107.68032,89.446914 Z M 244.41288,609.5823 c 26.10527,0 47.28503,-21.17976 47.28503,-47.28503 0,-26.10529 -21.17976,-47.28504 -47.28503,-47.28504 -26.10529,0 -47.28504,21.17975 -47.28504,47.28504 0,26.10527 21.17975,47.28503 47.28504,47.28503 z m 220.66348,0 c 26.10529,0 47.28504,-21.17976 47.28504,-47.28503 0,-26.10529 -21.17975,-47.28504 -47.28504,-47.28504 -26.10527,0 -47.28503,21.17975 -47.28503,47.28504 0,26.10527 21.17976,47.28503 47.28503,47.28503 z"
     id="path1"
     style="fill:#000000;fill-opacity:1;stroke-width:0.985105" /><g
     id="layer1"
     transform="matrix(9.1911753,0.82996618,-0.83012807,9.1833201,-91.820674,-459.60842)"
     style="fill:#000000;fill-opacity:1"><path
       id="text1"
       style="font-style:normal;font-variant:normal;font-weight:normal;font-stretch:normal;font-size:37.3906px;font-family:'Century Gothic';-inkscape-font-specification:'Century Gothic, Normal';font-variant-ligatures:normal;font-variant-caps:normal;font-variant-numeric:normal;font-variant-east-asian:normal;display:inline;fill:#000000;fill-opacity:1;stroke:#000000;stroke-width:0;stroke-linecap:round;stroke-miterlimit:3.8"
       d="m 43.829942,49.448812 c -3.067138,0 -5.605245,1.114068 -7.613489,3.341398 -1.825673,2.020415 -2.738334,4.405988 -2.738334,7.156669 0,2.775024 0.961535,5.203037 2.884579,7.28431 0.127292,0.136099 0.263241,0.255776 0.395325,0.382923 0.924177,-0.231121 1.881191,-0.545067 2.844787,-0.922425 -1.021788,-0.664263 -1.847508,-1.554022 -2.473234,-2.673738 -0.693751,-1.241464 -1.040763,-2.580086 -1.040763,-4.016293 0,-2.227329 0.760624,-4.126201 2.282031,-5.696293 1.521388,-1.570074 3.341311,-2.355412 5.459098,-2.355412 2.105615,0 3.919108,0.785338 5.440495,2.355412 1.36205,1.39448 2.115736,3.049573 2.268079,4.962488 0.870144,-0.818705 1.609733,-1.625874 2.200382,-2.393136 -0.434898,-1.504448 -1.203082,-2.873611 -2.31407,-4.103108 -2.008244,-2.215158 -4.53992,-3.322795 -7.594886,-3.322795 z m 10.294462,9.573576 c -0.782743,0.875443 -1.694123,1.761785 -2.71818,2.635498 -0.165814,0.822152 -0.456283,1.60914 -0.875916,2.360063 -0.693751,1.241446 -1.631106,2.203497 -2.811714,2.885095 -1.180607,0.669409 -2.476788,1.004073 -3.888652,1.004073 -0.696827,0 -1.365567,-0.08239 -2.006079,-0.245463 -1.173831,0.522262 -2.302686,0.942551 -3.370337,1.261422 1.544187,0.933627 3.332472,1.4118 5.376416,1.4118 3.030623,0 5.50751,-1.034586 7.430554,-3.103687 1.935234,-2.081273 2.902666,-4.509286 2.902666,-7.28431 0,-0.313452 -0.01526,-0.620578 -0.03876,-0.924491 z" /><path
       id="path1-0-3"
       style="display:inline;fill:#000000;fill-opacity:1;stroke:#000000;stroke-width:0;stroke-linecap:round;stroke-miterlimit:3.8"
       d="m 52.17666,49.778357 a 5.9588289,15.247772 58.577711 0 0 -2.403471,0.296106 11.446117,11.911805 0 0 1 1.23455,0.968933 4.6585569,13.888206 58.577711 0 1 4.09174,1.167371 4.6585569,13.888206 58.577711 0 1 -10.298596,11.39827 4.6585569,13.888206 58.577711 0 1 -13.661698,2.555917 4.6585569,13.888206 58.577711 0 1 1.206127,-3.778581 11.446117,11.911805 0 0 1 -0.207222,-1.680001 5.9588289,15.247772 58.577711 0 0 -2.207617,6.12159 5.9588289,15.247772 58.577711 0 0 15.466756,-2.042769 5.9588289,15.247772 58.577711 0 0 10.894942,-13.188342 5.9588289,15.247772 58.577711 0 0 -4.115511,-1.818494 z" /></g><g
     id="layer1-0"
     transform="matrix(4.0417954,6.4332628,-6.4332628,4.0417954,698.40883,-384.53982)"
     style="fill:#000000;fill-opacity:1"><path
       id="text1-1"
       style="font-style:normal;font-variant:normal;font-weight:normal;font-stretch:normal;font-size:37.3906px;font-family:'Century Gothic';-inkscape-font-specification:'Century Gothic, Normal';font-variant-ligatures:normal;font-variant-caps:normal;font-variant-numeric:normal;font-variant-east-asian:normal;display:inline;fill:#000000;fill-opacity:1;stroke:#000000;stroke-width:0;stroke-linecap:round;stroke-miterlimit:3.8"
       d="m 43.829942,49.448812 c -3.067138,0 -5.605245,1.114068 -7.613489,3.341398 -1.825673,2.020415 -2.738334,4.405988 -2.738334,7.156669 0,2.775024 0.961535,5.203037 2.884579,7.28431 0.127292,0.136099 0.263241,0.255776 0.395325,0.382923 0.924177,-0.231121 1.881191,-0.545067 2.844787,-0.922425 -1.021788,-0.664263 -1.847508,-1.554022 -2.473234,-2.673738 -0.693751,-1.241464 -1.040763,-2.580086 -1.040763,-4.016293 0,-2.227329 0.760624,-4.126201 2.282031,-5.696293 1.521388,-1.570074 3.341311,-2.355412 5.459098,-2.355412 2.105615,0 3.919108,0.785338 5.440495,2.355412 1.36205,1.39448 2.115736,3.049573 2.268079,4.962488 0.870144,-0.818705 1.609733,-1.625874 2.200382,-2.393136 -0.434898,-1.504448 -1.203082,-2.873611 -2.31407,-4.103108 -2.008244,-2.215158 -4.53992,-3.322795 -7.594886,-3.322795 z m 10.294462,9.573576 c -0.782743,0.875443 -1.694123,1.761785 -2.71818,2.635498 -0.165814,0.822152 -0.456283,1.60914 -0.875916,2.360063 -0.693751,1.241446 -1.631106,2.203497 -2.811714,2.885095 -1.180607,0.669409 -2.476788,1.004073 -3.888652,1.004073 -0.696827,0 -1.365567,-0.08239 -2.006079,-0.245463 -1.173831,0.522262 -2.302686,0.942551 -3.370337,1.261422 1.544187,0.933627 3.332472,1.4118 5.376416,1.4118 3.030623,0 5.50751,-1.034586 7.430554,-3.103687 1.935234,-2.081273 2.902666,-4.509286 2.902666,-7.28431 0,-0.313452 -0.01526,-0.620578 -0.03876,-0.924491 z" /><path
       id="path1-0-3-2"
       style="display:inline;fill:#000000;fill-opacity:1;stroke:#000000;stroke-width:0;stroke-linecap:round;stroke-miterlimit:3.8"
       d="m 52.17666,49.778357 a 5.9588289,15.247772 58.577711 0 0 -2.403471,0.296106 11.446117,11.911805 0 0 1 1.23455,0.968933 4.6585569,13.888206 58.577711 0 1 4.09174,1.167371 4.6585569,13.888206 58.577711 0 1 -10.298596,11.39827 4.6585569,13.888206 58.577711 0 1 -13.661698,2.555917 4.6585569,13.888206 58.577711 0 1 1.206127,-3.778581 11.446117,11.911805 0 0 1 -0.207222,-1.680001 5.9588289,15.247772 58.577711 0 0 -2.207617,6.12159 5.9588289,15.247772 58.577711 0 0 15.466756,-2.042769 5.9588289,15.247772 58.577711 0 0 10.894942,-13.188342 5.9588289,15.247772 58.577711 0 0 -4.115511,-1.818494 z" /></g></svg>
